<svg width="11" height="6.000000000000001" xmlns="http://www.w3.org/2000/svg" fill="none">

 <g>
  <title>Layer 1</title>
  <path transform="rotate(180 5.00998 2.50191)" id="svg_1" fill="#6F6E6E" d="m5.00214,5.00214c-0.16693,0.00033 -0.32871,-0.05781 -0.45726,-0.16432l-4.28678,-3.57232c-0.1459,-0.12128 -0.23766,-0.29554 -0.25508,-0.48447c-0.01742,-0.18892 0.04093,-0.37702 0.1622,-0.52293c0.12127,-0.1459 0.29554,-0.23766 0.48446,-0.25508c0.18893,-0.01742 0.37703,0.04093 0.52294,0.1622l3.82952,3.2008l3.82953,-3.08648c0.07308,-0.05935 0.15717,-0.10367 0.24743,-0.13041c0.09027,-0.02675 0.18493,-0.03539 0.27854,-0.02543c0.09362,0.00996 0.18434,0.03832 0.26696,0.08346c0.08262,0.04513 0.1555,0.10615 0.21446,0.17954c0.06543,0.07347 0.11499,0.15965 0.14556,0.25316c0.03058,0.0935 0.04148,0.19231 0.03208,0.29024c-0.0094,0.09792 -0.03886,0.19286 -0.08665,0.27885c-0.04778,0.08599 -0.11282,0.16118 -0.19101,0.22087l-4.28679,3.45086c-0.13223,0.08968 -0.29071,0.13244 -0.45011,0.12146z"/>
 </g>
</svg>